<svg width="13" height="13" viewBox="0 0 13 13" fill="none" xmlns="http://www.w3.org/2000/svg">
<g clip-path="url(#clip0_2693_2477)">
<path d="M11.8457 9.11007V10.7255C11.8463 10.8754 11.8156 11.0239 11.7555 11.1613C11.6954 11.2987 11.6073 11.422 11.4968 11.5234C11.3863 11.6248 11.2559 11.7019 11.1138 11.75C10.9717 11.798 10.8212 11.8159 10.6719 11.8024C9.01492 11.6223 7.42332 11.0561 6.02493 10.1493C4.72392 9.32258 3.62089 8.21955 2.79417 6.91853C1.88415 5.5138 1.31784 3.91445 1.14109 2.25007C1.12763 2.10117 1.14533 1.9511 1.19305 1.80941C1.24077 1.66772 1.31747 1.53752 1.41827 1.4271C1.51907 1.31668 1.64175 1.22845 1.77852 1.16804C1.91528 1.10764 2.06312 1.07636 2.21263 1.07622H3.82801C4.08933 1.07365 4.34267 1.16619 4.54081 1.33659C4.73894 1.50699 4.86836 1.74362 4.90494 2.00238C4.97312 2.51934 5.09956 3.02692 5.28186 3.51546C5.3543 3.70818 5.36998 3.91764 5.32704 4.11901C5.28409 4.32037 5.18432 4.50521 5.03955 4.65161L4.3557 5.33545C5.12223 6.68352 6.23841 7.79969 7.58647 8.56622L8.27032 7.88238C8.41672 7.73761 8.60156 7.63784 8.80292 7.59489C9.00429 7.55194 9.21374 7.56762 9.40647 7.64007C9.895 7.82237 10.4026 7.94881 10.9196 8.01699C11.1811 8.05389 11.42 8.18564 11.5908 8.38718C11.7615 8.58872 11.8523 8.846 11.8457 9.11007Z" stroke="white" stroke-linecap="round" stroke-linejoin="round"/>
</g>
<defs>
<clipPath id="clip0_2693_2477">
<rect width="12.9231" height="12.9231" fill="white"/>
</clipPath>
</defs>
</svg>
